<svg xmlns="http://www.w3.org/2000/svg" viewBox="0 0 512 512">
  <style>
    .theme-fill {
      fill: #000000;
    }
    @media (prefers-color-scheme: dark) {
      .theme-fill {
        fill: #ffffff;
      }
    }
  </style>
  
  <path
    class="theme-fill"
    d="m 138.56101,177.67172 h 31.63052 l -19.76908,94.89156 q -7.90763,37.72153 -20.73081,51.07901 -12.82318,13.35748 -39.431289,13.35748 -22.547431,0 -33.767716,-10.3654 -11.220286,-10.36541 -11.220286,-28.21101 0,-3.74009 0.534299,-8.33507 L 75.62055,286.8825 q -0.641159,4.70183 -0.641159,7.80077 0,7.48019 4.274394,11.434 4.274395,3.95382 13.143763,3.95382 12.395742,0 17.418162,-7.26647 3.74009,-5.55671 9.08308,-31.30994 z M 294.89699,334.32828 H 264.86937 L 222.55286,229.07131 200.53973,334.32828 h -30.02762 l 32.69912,-156.65656 h 30.13448 l 42.42337,104.82952 21.90627,-104.82952 h 29.92076 z m 37.72153,-50.75844 30.66878,-1.6029 q 0.64116,14.63981 5.02242,19.76908 7.05275,8.33507 26.0738,8.33507 15.81526,0 22.86802,-5.66357 7.05275,-5.66358 7.05275,-13.67807 0,-6.94589 -5.77044,-11.75458 -4.06067,-3.52638 -22.33371,-11.43401 -18.16617,-7.90763 -26.6081,-13.14376 -8.33507,-5.34299 -13.14377,-13.78492 -4.80869,-8.44193 -4.80869,-19.76908 0,-19.76907 14.31922,-32.80597 14.31922,-13.03691 41.46163,-13.03691 27.56984,0 42.63708,12.93005 15.1741,12.93004 16.67014,34.40887 l -30.8825,1.38918 q -1.17546,-11.22029 -8.12135,-17.20444 -6.94589,-5.98415 -20.51709,-5.98415 -13.35748,0 -19.12792,4.70183 -5.66357,4.70184 -5.66357,11.86145 0,6.73217 5.23613,11.11342 5.23614,4.48812 23.18859,12.28889 27.03555,11.64772 34.40888,18.91419 11.00657,10.68599 11.00657,27.46299 0,20.73081 -16.45642,35.47747 -16.34956,14.6398 -45.62917,14.6398 -20.19651,0 -35.05003,-6.73217 -14.74666,-6.83903 -20.83767,-18.91419 -6.09102,-12.07517 -5.66358,-27.78357 z"
  />
</svg>